<svg xmlns="http://www.w3.org/2000/svg" viewBox="0 0 64 64"><path fill="#4c7e3a" d="M0 0h64v64H0z"/><path opacity=".5" fill="#FFF" d="M40 16h10v-1c0-.5-.5-1-1-1h-9v2z"/><path opacity=".75" fill="#FFF" d="M28 14h10v2H28z"/><path fill="#FFF" d="M40 18H26v-4H15c-.5 0-1 .5-1 1v34c0 .5.5 1 1 1h34c.5 0 1-.5 1-1V18H40z"/><path d="M32.62 27.374c1.838.156 3.438 1.6 4.36 3.728l1.795-1.279 1.451-5.82a.63.63 0 011.218.304l-1.507 6.034a.667.667 0 01-.243.36l-2.274 1.625a10.633 10.633 0 01.276 1.423l2.65-.401 4.668-2.827a.627.627 0 11.649 1.073l-4.776 2.9a.649.649 0 01-.23.081l-2.861.427v.406l2.855.434a.619.619 0 01.231.084l4.803 2.9a.626.626 0 01-.338 1.164.621.621 0 01-.339-.089l-4.667-2.825-2.624-.399a11.047 11.047 0 01-.285 1.451l2.254 1.612a.634.634 0 01.245.359l1.505 6.03a.63.63 0 01-.456.765.93.93 0 01-.152 0 .627.627 0 01-.609-.476l-1.457-5.807-1.738-1.252a7.01 7.01 0 01-2.21 2.95 3.662 3.662 0 01.138 1.016c0 1.737-1.196 3.141-2.67 3.141-1.475 0-2.671-1.404-2.671-3.141a3.611 3.611 0 01.138-1.015 7.01 7.01 0 01-2.18-2.9l-1.776 1.269-1.452 5.81a.628.628 0 01-1.218-.31l1.505-6.036a.649.649 0 01.245-.358l2.265-1.611a10.6 10.6 0 01-.29-1.435l-2.65.406-4.667 2.825a.608.608 0 01-.338.086.63.63 0 01-.338-1.168l4.775-2.89a.69.69 0 01.23-.085l2.888-.437v-.393l-2.863-.433a.627.627 0 01-.23-.084l-4.778-2.911a.63.63 0 01.65-1.078l4.668 2.83 2.65.403a10.154 10.154 0 01.291-1.448l-2.26-1.61a.632.632 0 01-.243-.36l-1.49-6.034a.63.63 0 111.198-.39l.02.085 1.452 5.806 1.77 1.27c.918-2.14 2.526-3.605 4.37-3.768z" fill="#4c7e3a"/><rect x="31.938" width=".667" height="11.21" y="17.569" fill="#4c7e3a"/></svg>